#!OML:ASF F:\VICON\USERDATA\INSTALL\rory3\rory3.ASF
:FULLY-SPECIFIED
:DEGREES
47
root 1.07282 17.7808 -16.4057 6.53487 -0.788995 -0.529587
lowerback 7.01841 -0.174947 -0.257285
upperback -0.424783 -0.152342 2.32926
thorax -4.37286 -0.0425847 2.57734
lowerneck -19.1996 -4.22569 -9.31769
upperneck 15.1622 -4.48239 6.74032
head 8.22605 -1.99217 3.21872
rclavicle -5.66536e-015 3.97569e-015
rhumerus -31.4774 -7.87758 -81.929
rradius 33.4132
rwrist 4.92513
rhand -14.0715 14.3374
rfingers 7.12502
rthumb 12.0602 -15.2951
lclavicle -5.66536e-015 3.97569e-015
lhumerus -28.7947 8.20356 86.569
lradius 26.725
lwrist -12.6616
lhand -12.6574 26.9149
lfingers 7.12502
lthumb 13.4234 56.4624
rfemur -11.4192 3.54717 21.7021
rtibia 22.1847
rfoot -10.8886 -13.5017
rtoes 2.18298
lfemur -12.2867 -3.28939 -20.1782
ltibia 22.7775
lfoot -13.6511 5.83186
ltoes 2.44716
48
root 1.0737 17.7713 -16.4243 6.66018 -0.621025 -0.72863
lowerback 7.27257 -0.207816 -0.0245766
upperback -0.418911 -0.169175 2.42003
thorax -4.50979 -0.0543218 2.54497
lowerneck -19.3565 -4.24578 -9.50512
upperneck 15.043 -4.46147 6.86524
head 8.21885 -1.97712 3.29256
rclavicle 1.49089e-014 -4.77083e-015
rhumerus -31.426 -7.84319 -81.885
rradius 33.5787
rwrist 5.22616
rhand -13.6529 13.6596
rfingers 7.12502
rthumb 12.4637 -15.9487
lclavicle 1.49089e-014 -4.77083e-015
lhumerus -28.7404 8.07848 86.698
lradius 26.8435
lwrist -12.4246
lhand -14.0263 25.3778
lfingers 7.12502
lthumb 12.1038 55.0077
rfemur -11.8755 3.43283 21.9307
rtibia 22.7206
rfoot -11.054 -13.5138
rtoes 2.4087
lfemur -12.9097 -3.07984 -19.9418
ltibia 23.4862
lfoot -13.8744 5.6396
ltoes 2.03929
49
root 1.07428 17.761 -16.4481 6.7768 -0.458666 -0.834105
lowerback 7.54407 -0.25223 0.151266
upperback -0.430444 -0.207504 2.44067
thorax -4.67383 -0.0761372 2.47469
lowerneck -19.1638 -4.22856 -9.59786
upperneck 14.6964 -4.43896 6.98527
head 8.07263 -1.96145 3.34984
rclavicle 3.18055e-015 2.06736e-014
rhumerus -31.3696 -7.6465 -81.9651
rradius 33.6167
rwrist 4.97691
rhand -10.8834 10.2262
rfingers 7.12502
rthumb 15.1328 -19.2005
lclavicle 3.18055e-015 2.06736e-014
lhumerus -28.8002 7.81423 86.7484
lradius 27.1006
lwrist -11.9638
lhand -13.4668 25.8797
lfingers 7.12502
lthumb 12.6432 55.477
rfemur -12.3782 3.32184 22.0505
rtibia 23.3026
rfoot -11.3374 -13.4757
rtoes 3.58314
lfemur -13.6169 -2.90084 -19.8062
ltibia 24.3093
lfoot -14.1396 5.39626
ltoes 2.01569
50
root 1.07641 17.7464 -16.4775 6.93776 -0.343371 -0.888419
lowerback 7.92411 -0.30724 0.27315
upperback -0.499554 -0.261238 2.44827
thorax -4.95881 -0.103609 2.42559
lowerneck -19.1529 -4.20379 -9.55234
upperneck 14.5815 -4.39918 6.91059
head 8.02586 -1.94695 3.32115
rclavicle 2.88238e-015 1.19271e-014
rhumerus -31.3675 -7.37927 -82.0605
rradius 33.8522
rwrist 4.99586
rhand -13.5733 13.9705
rfingers 7.12502
rthumb 12.5405 -15.6331
lclavicle 2.88238e-015 1.19271e-014
lhumerus -28.8703 7.56632 86.783
lradius 27.3905
lwrist -11.631
lhand -12.8544 27.0463
lfingers 7.12502
lthumb 13.2335 56.6062
rfemur -13.0212 3.30197 22.0968
rtibia 23.942
rfoot -11.5637 -13.5281
rtoes 4.6737
lfemur -14.4335 -2.57688 -19.7392
ltibia 25.1779
lfoot -14.3659 5.02012
ltoes 1.83219
51
root 1.07839 17.7248 -16.505 7.05132 -0.302834 -1.01296
lowerback 8.29722 -0.346171 0.348516
upperback -0.516165 -0.292941 2.55927
thorax -5.18579 -0.118302 2.50824
lowerneck -19.407 -4.21065 -9.54168
upperneck 14.6793 -4.3529 6.71632
head 8.09311 -1.93968 3.25821
rclavicle -3.77691e-015 -2.38542e-015
rhumerus -31.3896 -6.96209 -82.0974
rradius 34.2541
rwrist 4.97559
rhand -14.5674 15.3498
rfingers 7.12502
rthumb 11.5819 -14.3102
lclavicle -3.77691e-015 -2.38542e-015
lhumerus -28.7738 7.56312 86.9202
lradius 27.5282
lwrist -11.4883
lhand -13.2208 26.5564
lfingers 7.12502
lthumb 12.8803 56.1389
rfemur -13.6823 3.37959 22.2272
rtibia 24.6368
rfoot -11.6701 -13.7452
rtoes 2.77478
lfemur -15.2209 -2.13115 -19.616
ltibia 26.0462
lfoot -14.5754 4.66365
ltoes 1.33557
52
root 1.08198 17.7017 -16.5266 7.11794 -0.264766 -1.11265
lowerback 8.57018 -0.408008 0.406361
upperback -0.462277 -0.359883 2.6653
thorax -5.28076 -0.151103 2.59843
lowerneck -19.5154 -4.13617 -9.62226
upperneck 14.4667 -4.20706 6.70796
head 8.02935 -1.87266 3.28507
rclavicle -6.95746e-016 -1.98785e-014
rhumerus -31.4654 -6.15397 -82.3763
rradius 34.6637
rwrist 3.65579
rhand -14.2401 14.3675
rfingers 7.12502
rthumb 11.8976 -15.2744
lclavicle -6.95746e-016 -1.98785e-014
lhumerus -28.6946 7.62651 87.0115
lradius 27.6876
lwrist -11.5449
lhand -13.8309 24.5227
lfingers 7.12502
lthumb 12.2922 54.1414
rfemur -14.2567 3.28411 22.3417
rtibia 25.3745
rfoot -11.7486 -13.8291
rtoes 0.497262
lfemur -15.9087 -1.78154 -19.5143
ltibia 26.9153
lfoot -14.8689 4.36717
ltoes 1.45613
53
root 1.08778 17.6811 -16.5479 7.20637 -0.110091 -1.24211
lowerback 8.89721 -0.451488 0.686029
upperback -0.366532 -0.384194 2.65965
thorax -5.36596 -0.170815 2.44144
lowerneck -19.8327 -4.10927 -9.66348
upperneck 14.2699 -4.15259 6.88195
head 8.01767 -1.82465 3.35459
rclavicle 5.1684e-015 9.54166e-015
rhumerus -31.4294 -5.45781 -82.7711
rradius 35.0591
rwrist 2.14983
rhand -13.9922 13.2021
rfingers 7.12502
rthumb 12.1366 -16.4259
lclavicle 5.1684e-015 9.54166e-015
lhumerus -28.539 7.30833 87.0643
lradius 27.9752
lwrist -11.6316
lhand -13.8108 24.6906
lfingers 7.12502
lthumb 12.3116 54.3081
rfemur -14.8401 2.92406 22.5007
rtibia 26.1752
rfoot -11.9737 -13.7216
rtoes -0.247081
lfemur -16.5893 -1.5032 -19.3659
ltibia 27.8227
lfoot -15.2443 3.92188
ltoes 2.11231
54
root 1.09613 17.6595 -16.5746 7.36148 0.0103111 -1.27579
lowerback 9.21369 -0.407428 0.961664
upperback -0.163569 -0.29832 2.57097
thorax -5.33654 -0.13792 2.1831
lowerneck -20.8366 -4.29119 -9.59767
upperneck 14.4138 -4.34399 6.96774
head 8.25411 -1.88495 3.34271
rclavicle 3.27995e-015 2.46493e-014
rhumerus -30.9839 -5.39519 -82.9242
rradius 35.1503
rwrist 1.71176
rhand -15.7714 15.5344
rfingers 7.12502
rthumb 10.4207 -14.1874
lclavicle 3.27995e-015 2.46493e-014
lhumerus -28.1142 6.70547 87.2405
lradius 28.4464
lwrist -11.5492
lhand -13.6751 26.3553
lfingers 7.12502
lthumb 12.4424 55.965
rfemur -15.5909 2.52179 22.5238
rtibia 27.0653
rfoot -12.3917 -13.5744
rtoes 1.1076
lfemur -17.3366 -1.28948 -19.3419
ltibia 28.7499
lfoot -15.6129 3.52785
ltoes 2.63051
55
root 1.10347 17.6288 -16.6057 7.45405 0.0245615 -1.31743
lowerback 9.5069 -0.345859 1.1095
upperback 0.123886 -0.201198 2.55461
thorax -5.2037 -0.095065 2.06924
lowerneck -21.7591 -4.4417 -9.50676
upperneck 14.3715 -4.47332 6.91158
head 8.40366 -1.92894 3.28432
rclavicle 9.93923e-017 -1.27222e-014
rhumerus -30.3543 -5.65441 -82.7778
rradius 35.7555
rwrist 3.73727
rhand -16.0195 14.3277
rfingers 7.12502
rthumb 10.1814 -15.4059
lclavicle 9.93923e-017 -1.27222e-014
lhumerus -27.6013 6.25063 87.4754
lradius 28.9641
lwrist -11.4397
lhand -14.2226 23.2463
lfingers 7.12502
lthumb 11.9145 52.8873
rfemur -16.3515 2.16795 22.5551
rtibia 28.0395
rfoot -12.7616 -13.3934
rtoes 4.03744
lfemur -18.056 -0.989763 -19.3239
ltibia 29.702
lfoot -16.0256 3.21832
ltoes 2.7317
56
root 1.11083 17.5967 -16.6362 7.42209 0.00875035 -1.48953
lowerback 9.90331 -0.323641 1.32792
upperback 0.358559 -0.139214 2.61711
thorax -5.18266 -0.0695534 2.00471
lowerneck -21.8517 -4.44907 -9.47162
upperneck 13.7436 -4.44867 6.86585
head 8.20219 -1.91488 3.26008
rclavicle 3.77691e-015 -2.70347e-014
rhumerus -30.0586 -5.34877 -82.7752
rradius 36.3893
rwrist 4.35673
rhand -14.9903 12.5164
rfingers 7.12502
rthumb 11.1741 -17.1661
lclavicle 3.77691e-015 -2.70347e-014
lhumerus -27.2476 6.01044 87.6371
lradius 29.3086
lwrist -11.2755
lhand -12.3843 29.7653
lfingers 7.12502
lthumb 13.6866 59.2953
rfemur -16.9751 1.89205 22.7347
rtibia 29.0892
rfoot -13.1852 -13.1584
rtoes 4.86886
lfemur -18.6741 -0.590212 -19.1657
ltibia 30.6917
lfoot -16.4451 2.92397
ltoes 2.73547
57
root 1.12038 17.5658 -16.6614 7.50899 -0.0937912 -1.507
lowerback 10.259 -0.300393 1.4017
upperback 0.449853 -0.0902342 2.64162
thorax -5.28789 -0.0469559 1.98475
lowerneck -21.6372 -4.46931 -9.5349
upperneck 13.1245 -4.45406 6.88029
head 7.96028 -1.91991 3.27081
rclavicle -1.19271e-015 -1.74931e-014
rhumerus -30.0708 -4.71871 -82.8376
rradius 37.1059
rwrist 4.41126
rhand -13.0311 11.8621
rfingers 7.12502
rthumb 13.0632 -17.7089
lclavicle -1.19271e-015 -1.74931e-014
lhumerus -27.2193 5.67971 87.7704
lradius 29.7188
lwrist -11.01
lhand -13.1867 26.6479
lfingers 7.12502
lthumb 12.9132 56.2284
rfemur -17.7691 1.60533 22.7174
rtibia 30.2018
rfoot -13.644 -12.8447
rtoes 3.9496
lfemur -19.4448 -0.0477026 -19.2273
ltibia 31.7163
lfoot -16.8105 2.64824
ltoes 2.33063
58
root 1.12576 17.5307 -16.6857 7.61671 -0.300694 -1.54107
lowerback 10.6442 -0.25115 1.373
upperback 0.442616 -0.013209 2.68934
thorax -5.51359 -0.00757802 2.044
lowerneck -21.2597 -4.4394 -9.64376
upperneck 12.6855 -4.40507 6.91078
head 7.74985 -1.90379 3.30458
rclavicle 2.5842e-015 -3.18055e-015
rhumerus -30.2119 -3.97635 -82.9476
rradius 37.7649
rwrist 4.33243
rhand -11.3554 10.5925
rfingers 7.12502
rthumb 14.6781 -18.868
lclavicle 2.5842e-015 -3.18055e-015
lhumerus -27.4476 5.3069 87.8941
lradius 30.3032
lwrist -10.7549
lhand -13.4215 25.677
lfingers 7.12502
lthumb 12.6868 55.2717
rfemur -18.6136 1.50234 22.7308
rtibia 31.323
rfoot -13.959 -12.6072
rtoes 4.49513
lfemur -20.2224 0.444218 -19.2574
ltibia 32.7441
lfoot -17.2195 2.49351
ltoes 1.93774
59
root 1.12762 17.4914 -16.7137 7.64061 -0.406805 -1.66837
lowerback 11.0678 -0.236022 1.38142
upperback 0.486183 0.026007 2.79208
thorax -5.70672 0.0129176 2.14543
lowerneck -20.8453 -4.3512 -9.76238
upperneck 12.1322 -4.27901 6.96784
head 7.49063 -1.84852 3.3585
rclavicle -9.14409e-015 -2.06736e-014
rhumerus -30.1977 -2.81942 -83.2717
rradius 37.5782
rwrist 1.16621
rhand -12.8092 12.7904
rfingers 7.12502
rthumb 13.2771 -16.7667
lclavicle -9.14409e-015 -2.06736e-014
lhumerus -27.4779 5.07107 88.0473
lradius 30.725
lwrist -10.4555
lhand -13.5178 25.7608
lfingers 7.12502
lthumb 12.594 55.3612
rfemur -19.3528 1.44825 22.8836
rtibia 32.4372
rfoot -14.3301 -12.5276
rtoes 4.49085
lfemur -20.9026 0.744204 -19.1199
ltibia 33.8064
lfoot -17.6924 2.32018
ltoes 2.22593
